 <svg  version="1.0" xmlns="http://www.w3.org/2000/svg"  width="300.000000pt" height="75.000000pt" viewBox="0 0 300.000000 75.000000"  preserveAspectRatio="xMidYMid meet">  <g transform="translate(0.000000,75.000000) scale(0.050000,-0.050000)" fill="#167e18" stroke="none"> <path d="M634 1035 l-176 -185 11 175 11 175 -85 0 -85 0 4 -505 4 -505 81 -6 80 -6 -12 196 -11 196 197 -207 197 -207 56 59 57 60 -224 217 -223 218 213 205 213 205 -56 49 c-73 65 -52 76 -252 -134z"/> <path d="M1161 960 l-270 -258 280 -270 279 -270 55 63 c69 79 71 71 -41 160 -52 41 -139 116 -194 166 l-100 91 175 -9 175 -9 0 77 0 77 -169 6 -170 6 161 130 c88 72 175 141 193 155 29 22 27 31 -25 85 -74 77 -40 96 -349 -200z"/> <path d="M2012 1035 l-173 -185 6 175 5 175 -85 0 -85 0 0 -510 0 -510 80 0 80 0 0 193 0 194 193 -205 193 -204 57 55 58 55 -222 223 -221 222 182 178 c101 99 196 187 213 196 26 14 22 26 -25 75 -74 77 -60 84 -256 -127z"/> <path d="M2537 960 l-274 -259 284 -269 283 -269 55 52 c74 70 83 55 -165 278 -121 108 -220 203 -220 210 0 9 377 346 439 391 10 8 -102 126 -118 125 -6 -1 -134 -117 -284 -259z"/> <path d="M4211 1195 c-12 -35 -343 -918 -360 -959 -12 -29 78 -75 150 -76 6 0 23 45 37 100 l26 100 166 0 166 0 26 -100 c14 -55 31 -100 37 -100 72 1 162 47 150 76 -13 33 -324 907 -340 959 -4 14 -17 25 -29 25 -12 0 -25 -11 -29 -25z m77 -490 c20 -74 41 -151 47 -170 8 -30 -5 -35 -105 -35 -83 0 -112 7 -105 25 5 14 31 90 56 170 57 178 62 178 107 10z"/> <path d="M5080 700 l0 -520 82 0 82 0 -7 300 c-4 165 -5 300 -3 300 1 0 99 -135 215 -300 117 -165 224 -300 237 -300 18 0 24 125 24 510 l0 510 -86 0 -85 0 13 -290 c8 -159 9 -290 3 -290 -7 0 -108 135 -224 300 -117 165 -221 300 -232 300 -12 0 -19 -202 -19 -520z"/> <path d="M3054 695 l4 -505 83 -6 83 -6 -7 226 -7 226 186 6 186 6 -4 -226 -3 -226 82 -6 83 -6 0 511 0 511 -85 0 -85 0 6 -210 7 -210 -188 0 -188 0 9 210 9 210 -87 0 -88 0 4 -505z"/> <path d="M4740 690 l0 -510 80 0 80 0 0 510 0 510 -80 0 -80 0 0 -510z"/> </g> </svg> 